<?xml version="1.0" standalone="no"?>
<!DOCTYPE svg PUBLIC "-//W3C//DTD SVG 20010904//EN"
 "http://www.w3.org/TR/2001/REC-SVG-20010904/DTD/svg10.dtd">
<svg version="1.0" xmlns="http://www.w3.org/2000/svg"
 width="224.000000pt" height="224.000000pt" viewBox="0 0 224.000000 224.000000"
 preserveAspectRatio="xMidYMid meet">

<g transform="translate(0.000000,224.000000) scale(0.100000,-0.100000)"
fill="#000000" stroke="none">
<path d="M980 2189 c-281 -36 -548 -192 -720 -421 -281 -372 -291 -868 -27
-1263 40 -61 229 -255 247 -255 6 0 10 9 10 20 0 13 7 20 20 20 13 0 20 -7 20
-18 0 -20 24 -45 53 -55 14 -5 17 -1 17 23 0 32 9 37 29 18 10 -11 15 -9 27 6
19 27 18 46 -3 47 -12 1 -9 4 7 8 57 17 78 -13 38 -56 -25 -27 -11 -30 37 -7
19 9 42 14 52 11 26 -6 -63 -47 -104 -47 l-32 0 17 -30 c17 -30 32 -39 32 -20
0 6 9 10 20 10 27 0 26 -26 -2 -41 -21 -11 -20 -12 13 -26 80 -35 227 -64 347
-70 l122 -6 0 24 c0 64 -13 99 -36 105 -25 6 -28 12 -18 38 8 21 33 20 63 0
21 -15 23 -22 18 -70 -3 -30 -4 -54 -2 -54 2 0 18 26 35 57 30 54 46 72 61 73
3 0 12 -19 19 -42 l13 -43 13 62 c15 75 19 83 45 83 14 0 19 -7 19 -26 0 -23
1 -24 16 -10 8 9 22 16 30 16 15 0 50 18 70 36 7 6 9 16 3 26 -6 11 -4 20 6
28 12 10 18 4 37 -34 12 -25 26 -46 32 -46 6 0 5 5 -2 12 -17 17 -15 57 3 64
11 5 12 11 4 25 -10 19 -5 39 10 39 5 0 24 -25 44 -55 27 -41 32 -57 23 -64
-9 -7 -16 -7 -24 1 -9 9 -12 9 -12 -1 0 -12 -44 -61 -55 -61 -2 0 -13 10 -25
22 -16 18 -23 19 -33 9 -9 -10 -8 -14 6 -22 26 -15 21 -29 -11 -29 -16 0 -32
-8 -40 -20 -16 -26 -58 -26 -74 0 -12 19 -14 19 -30 -17 -10 -21 -16 -29 -14
-18 17 80 18 87 6 83 -7 -2 -14 -28 -16 -58 -3 -42 -10 -61 -30 -80 -25 -24
-25 -25 -40 -6 -7 11 -14 30 -14 43 0 36 -16 27 -36 -19 -10 -24 -20 -47 -22
-52 -3 -5 17 -6 44 -2 215 31 462 160 614 322 304 323 383 796 200 1191 -72
155 -184 298 -309 396 l-61 48 -30 -48 c-30 -46 -57 -64 -53 -33 2 10 -7 15
-28 16 -42 2 -55 17 -42 47 9 19 8 24 -4 24 -8 0 -19 -12 -25 -26 -9 -25 -10
-25 -23 -8 -12 17 -9 39 11 75 0 1 14 -4 30 -13 26 -13 30 -13 40 0 12 17 34
20 34 6 0 -6 -10 -27 -22 -48 -21 -36 -21 -37 -2 -20 11 9 31 17 43 17 12 0
29 6 36 13 11 12 1 21 -63 55 -59 31 -176 82 -189 82 0 0 1 -8 3 -18 5 -18
-41 -87 -64 -96 -8 -4 -11 -1 -7 7 4 6 -2 2 -12 -9 -10 -12 -28 -25 -40 -29
-21 -6 -23 -3 -23 34 0 23 -3 41 -6 41 -3 0 -21 -16 -40 -35 -48 -49 -57 -46
-49 20 5 38 3 60 -5 70 -14 17 -6 45 13 45 8 0 22 -9 32 -20 18 -19 18 -22 2
-56 -27 -55 -20 -59 27 -20 24 20 52 36 61 36 15 0 17 -6 11 -42 l-7 -43 32
50 c17 28 35 52 40 53 35 13 -36 36 -161 52 -88 11 -179 11 -270 -1z m-26 -81
c-3 -10 -1 -25 5 -31 5 -7 6 -18 2 -26 -6 -10 -12 -9 -25 4 -9 9 -16 23 -16
31 0 8 -4 14 -8 14 -17 0 -21 -13 -11 -32 14 -26 -3 -45 -21 -23 -15 18 -36
20 -46 3 -5 -8 -2 -9 9 -5 23 9 21 -10 -2 -22 -14 -8 -22 -6 -35 8 -30 33 -13
71 31 71 13 0 23 5 23 11 0 6 11 8 29 4 21 -4 30 -2 34 9 9 23 39 8 31 -16z
m76 17 c0 -8 -4 -15 -10 -15 -5 0 -10 -7 -10 -15 0 -8 5 -15 11 -15 5 0 7 -4
4 -10 -9 -14 -45 -12 -45 3 0 6 -3 22 -6 34 -6 21 -4 22 49 32 4 0 7 -6 7 -14z
m64 5 c20 -7 26 -16 26 -40 0 -20 -5 -30 -15 -30 -8 0 -15 5 -15 12 0 9 -3 9
-12 0 -7 -7 -18 -12 -25 -12 -16 0 -17 52 -1 68 14 14 11 14 42 2z m-358 -95
l-25 -45 35 0 c19 0 33 3 33 8 -3 17 2 32 10 32 18 0 21 -33 6 -56 -12 -19
-24 -24 -59 -24 -35 0 -45 -4 -54 -24 -14 -31 -58 -42 -83 -20 -26 23 -16 33
29 27 27 -4 42 -1 51 11 11 13 11 17 -3 22 -20 8 -21 31 -2 36 10 2 11 9 4 27
-6 19 -11 22 -20 13 -24 -24 -29 -11 -8 18 27 37 41 35 56 -11 l12 -34 12 45
c15 58 24 71 28 42 2 -12 -8 -43 -22 -67z m774 30 c17 -20 3 -54 -26 -61 -45
-11 -72 35 -36 62 23 18 47 17 62 -1z m-241 -114 c20 -6 59 -15 86 -22 28 -7
55 -15 60 -19 6 -4 21 -10 35 -13 48 -12 194 -110 260 -176 102 -101 208 -270
196 -314 -3 -12 1 -25 11 -32 14 -10 12 -14 -17 -28 -18 -10 -39 -17 -47 -17
-9 0 -13 -8 -11 -22 2 -15 -2 -23 -12 -23 -10 0 -14 8 -13 23 2 12 -2 22 -7
22 -6 0 -10 34 -10 79 0 50 -4 83 -12 87 -6 4 -41 7 -77 6 -36 0 -94 -1 -128
-1 l-63 -1 0 -105 c0 -58 -1 -105 -2 -105 -2 0 -40 -3 -84 -6 l-81 -7 -2 29
c-3 50 -10 168 -10 182 -1 8 -19 12 -55 12 -30 0 -58 5 -61 10 -6 10 25 14 71
11 47 -4 70 15 82 69 7 28 9 56 6 62 -3 5 -25 9 -48 8 -22 -1 -56 -1 -75 -1
l-33 1 26 35 27 35 -56 55 c-31 30 -62 55 -70 55 -8 0 -15 8 -15 18 0 9 -6 34
-13 54 l-13 38 -17 -39 c-9 -21 -17 -46 -17 -57 0 -22 -46 -64 -70 -64 -10 0
-29 -9 -43 -21 -23 -17 -25 -23 -14 -40 6 -10 17 -19 24 -19 7 0 13 -7 13 -15
0 -8 5 -15 10 -15 6 0 10 9 10 20 0 25 17 26 23 3 3 -14 7 -11 16 12 12 29 13
29 24 10 11 -19 11 -19 17 4 8 33 26 37 34 9 5 -14 9 -18 13 -10 8 19 23 14
23 -8 0 -11 -5 -20 -11 -20 -5 0 -7 -4 -4 -10 8 -13 5 -12 -33 1 -26 9 -38 7
-79 -13 -36 -18 -63 -23 -111 -22 -35 0 -66 -4 -71 -10 -5 -6 -12 -35 -16 -64
-4 -31 -13 -56 -21 -59 -8 -3 -14 -11 -14 -18 0 -16 -51 -30 -59 -16 -4 5 -64
11 -136 13 -72 2 -138 7 -147 12 -13 6 -18 4 -18 -7 0 -11 -8 -15 -30 -12 -16
2 -30 0 -30 -5 0 -6 -5 -10 -11 -10 -6 0 -7 5 -2 13 4 6 8 14 8 17 10 63 137
212 255 300 102 75 193 114 263 112 43 -1 57 2 57 13 0 30 220 41 319 16z
m-289 -211 c0 -5 -4 -10 -10 -10 -5 0 -10 5 -10 10 0 6 5 10 10 10 6 0 10 -4
10 -10z m126 -102 c-1 -26 -36 -39 -36 -14 0 11 20 31 36 36 1 0 1 -10 0 -22z
m-66 -14 c0 -8 -6 -11 -16 -7 -9 3 -20 0 -25 -8 -12 -19 -11 -49 2 -49 5 0 7
5 4 10 -7 11 22 26 32 17 9 -10 -26 -57 -42 -57 -7 0 -21 10 -30 23 l-16 22
-15 -21 c-17 -24 -54 -22 -54 3 0 11 -6 8 -20 -8 -23 -28 -23 -26 -9 39 l10
49 90 0 c68 0 89 -3 89 -13z m250 -1 c1 -17 1 -17 14 0 7 9 26 17 42 17 21 0
25 -3 15 -9 -8 -5 -11 -16 -7 -27 4 -10 1 -21 -6 -26 -10 -8 -10 -11 0 -15 22
-9 2 -23 -34 -23 -28 0 -34 4 -35 23 -1 21 -1 21 -8 -3 -6 -22 -12 -24 -41
-21 -69 7 -75 7 -89 -3 -12 -9 -13 -4 -7 29 13 68 18 72 91 74 56 1 65 -1 65
-16z m-180 -43 c0 -5 -11 -10 -25 -10 -14 0 -25 5 -25 10 0 6 11 10 25 10 14
0 25 -4 25 -10z m7 -26 c-3 -3 -12 -4 -19 -1 -8 3 -5 6 6 6 11 1 17 -2 13 -5z
m-517 -93 c5 -11 10 -57 10 -102 0 -45 3 -79 6 -76 8 8 11 35 13 125 l1 72 40
0 40 0 0 -95 c0 -88 1 -95 20 -95 17 0 20 7 20 44 0 43 1 45 33 48 31 3 32 5
35 51 l3 47 115 0 114 0 0 -130 0 -130 -35 0 c-33 0 -35 -2 -35 -35 0 -34 -1
-35 -38 -35 -38 0 -97 -29 -60 -30 9 0 18 -10 20 -22 2 -19 10 -24 41 -26 35
-3 37 -5 37 -38 0 -32 2 -34 35 -34 l35 0 0 -130 0 -130 -53 0 c-46 0 -55 3
-64 22 l-10 23 -12 -23 c-9 -17 -21 -22 -51 -22 l-39 0 -3 48 c-3 45 -4 47
-35 50 -30 3 -32 5 -35 50 -2 34 -7 47 -18 47 -12 0 -16 -19 -18 -97 l-3 -98
-94 0 c-87 0 -95 2 -95 19 0 11 5 23 10 26 6 3 10 23 9 43 l-1 37 -8 -34 c-4
-18 -17 -42 -28 -53 -20 -20 -20 -19 -21 202 -2 197 0 224 15 241 9 11 27 19
38 19 12 0 28 5 36 10 11 7 7 10 -18 10 -66 0 -72 10 -72 114 0 51 3 96 7 99
3 4 28 7 54 7 38 0 51 -4 59 -19z m718 -9 c2 -12 -3 -24 -10 -26 -7 -2 -32 -9
-55 -15 -33 -9 -43 -17 -43 -32 0 -20 0 -20 30 1 34 24 73 23 78 -2 2 -12 -7
-18 -38 -23 -42 -7 -77 -42 -67 -67 3 -8 10 -2 17 15 11 22 20 27 52 27 l38 0
0 -86 c0 -76 2 -85 18 -82 12 2 18 15 20 46 l3 43 67 -3 67 -3 3 -43 c3 -38 6
-43 25 -40 21 3 22 7 25 161 l3 157 54 0 c41 0 57 -4 65 -17 10 -17 10 -17 20
0 7 11 23 17 45 17 l35 0 0 -234 0 -234 -22 -6 c-13 -3 -44 -6 -70 -6 -27 0
-48 -4 -48 -10 0 -6 30 -10 70 -10 l71 0 -3 -117 -3 -118 -107 -3 -107 -3 -3
48 -3 48 -47 3 -48 3 0 40 c0 28 -4 39 -15 39 -11 0 -15 -11 -15 -40 l0 -40
-50 0 -50 0 0 -50 0 -51 -112 3 -113 3 -3 73 -3 72 36 0 c45 0 45 12 0 29
l-35 12 0 268 c0 147 3 271 7 275 4 3 54 5 112 4 101 -3 106 -4 109 -26z
m-893 -12 c3 -6 -1 -7 -9 -4 -18 7 -21 14 -7 14 6 0 13 -4 16 -10z m-71 -47
c4 -4 15 -8 24 -8 22 0 40 -61 24 -85 -9 -14 -8 -20 1 -23 7 -3 3 -5 -8 -6
-52 0 -78 37 -55 79 7 14 6 23 -6 34 -12 13 -13 16 -1 16 7 0 17 -3 21 -7z
m86 -24 c0 -10 -4 -19 -10 -19 -5 0 -10 12 -10 26 0 14 4 23 10 19 6 -3 10
-15 10 -26z m10 -39 c0 -5 -4 -10 -10 -10 -5 0 -10 5 -10 10 0 6 5 10 10 10 6
0 10 -4 10 -10z m1480 -8 c0 -26 -9 -33 -30 -20 -13 9 -15 14 -6 24 16 19 36
17 36 -4z m-32 -38 c12 -4 22 -13 22 -22 0 -12 -3 -13 -12 -4 -7 7 -20 12 -30
12 -10 0 -18 5 -18 10 0 11 6 12 38 4z m-1453 -14 c-3 -5 -10 -10 -16 -10 -5
0 -9 5 -9 10 0 6 7 10 16 10 8 0 12 -4 9 -10z m612 -187 c-3 -10 -5 -4 -5 12
0 17 2 24 5 18 2 -7 2 -21 0 -30z m-607 -23 c0 -25 -4 -30 -23 -30 -31 0 -35
5 -29 35 3 18 11 25 28 25 20 0 24 -5 24 -30z m595 -19 c-3 -6 -11 -11 -16
-11 -5 0 -4 6 3 14 14 16 24 13 13 -3z m-255 -276 c0 -22 6 -38 18 -44 15 -9
13 -10 -10 -11 -15 0 -29 4 -33 10 -3 5 -13 6 -23 3 -15 -6 -15 -5 -3 10 7 9
11 17 7 17 -4 0 1 11 10 25 23 34 34 31 34 -10z m4 -92 c-5 -17 -5 -17 6 0 6
9 19 17 28 17 14 0 16 -9 14 -55 -4 -56 -9 -64 -30 -43 -7 7 -12 8 -12 2 0 -6
-13 -11 -30 -12 -20 0 -30 4 -30 14 0 8 4 14 9 14 5 0 11 18 15 40 4 25 12 40
21 40 9 0 12 -6 9 -17z m86 5 c0 -9 4 -8 10 2 9 13 11 13 20 0 6 -10 10 -11
10 -2 0 6 9 12 19 12 17 0 20 -8 23 -47 l3 -48 30 48 30 47 123 -1 c67 -1 125
-5 128 -10 3 -5 14 -3 24 4 16 9 24 9 40 0 12 -8 21 -9 25 -3 9 14 65 13 65
-1 0 -8 5 -7 15 1 20 16 32 5 16 -14 -8 -9 -10 -27 -6 -46 5 -23 3 -30 -8 -30
-9 0 -18 6 -20 13 -3 7 -6 5 -6 -5 -1 -10 -8 -18 -17 -18 -8 0 -12 5 -9 10 3
6 1 10 -4 10 -6 0 -11 -4 -11 -10 0 -16 -30 -12 -37 5 -5 14 -7 14 -22 1 -19
-17 -69 -15 -81 3 -5 10 -9 9 -13 -3 -10 -25 -29 -19 -21 7 l6 22 -23 -21
c-23 -20 -89 -30 -89 -13 0 4 -13 2 -30 -4 -38 -14 -42 -9 -29 37 6 21 9 40 6
42 -2 2 -18 -16 -36 -41 -23 -32 -39 -45 -57 -45 -16 0 -24 6 -24 18 -1 15 -2
15 -10 1 -5 -9 -23 -16 -40 -17 -27 -1 -30 2 -30 31 0 18 3 42 6 55 7 23 24
31 24 10z m-25 -452 c16 4 25 2 25 -6 0 -8 9 -10 25 -6 14 4 25 2 25 -3 0 -13
36 -24 93 -27 59 -3 79 -18 75 -58 -3 -34 -38 -52 -38 -20 0 16 -1 16 -20 -1
-21 -19 -25 -15 -32 28 -4 26 -23 21 -23 -6 0 -20 -5 -23 -36 -19 -6 1 -10 14
-9 30 3 41 1 49 -10 32 -5 -8 -7 -22 -4 -32 2 -9 -1 -20 -7 -24 -16 -9 -38 22
-32 45 3 10 0 22 -6 25 -11 7 -15 -5 -11 -37 3 -28 -34 -17 -38 11 -2 14 -10
22 -24 22 -18 0 -19 -2 -7 -16 11 -14 9 -15 -17 -12 -37 4 -44 38 -14 68 16
16 25 18 40 10 11 -6 31 -8 45 -4z"/>
<path d="M1470 2040 c0 -19 3 -21 12 -12 9 9 9 15 0 24 -9 9 -12 7 -12 -12z"/>
<path d="M1810 1380 c0 -22 1 -23 24 -14 23 9 20 34 -4 34 -13 0 -20 -7 -20
-20z"/>
<path d="M1460 1330 c0 -5 7 -10 16 -10 8 0 12 5 9 10 -3 6 -10 10 -16 10 -5
0 -9 -4 -9 -10z"/>
<path d="M1400 1320 c0 -5 5 -10 11 -10 5 0 7 5 4 10 -3 6 -8 10 -11 10 -2 0
-4 -4 -4 -10z"/>
<path d="M906 1594 c-4 -14 -5 -28 -3 -31 3 -2 8 8 11 23 4 14 5 28 3 31 -3 2
-8 -8 -11 -23z"/>
<path d="M1130 660 c0 -5 5 -10 10 -10 6 0 10 5 10 10 0 6 -4 10 -10 10 -5 0
-10 -4 -10 -10z"/>
<path d="M1240 659 c0 -5 5 -7 10 -4 6 3 10 8 10 11 0 2 -4 4 -10 4 -5 0 -10
-5 -10 -11z"/>
<path d="M1177 654 c-4 -4 -7 -17 -7 -28 1 -19 1 -20 11 -3 11 19 8 43 -4 31z"/>
<path d="M1302 648 c-14 -14 -16 -38 -2 -38 9 0 30 31 30 44 0 10 -15 7 -28
-6z"/>
<path d="M1370 639 c-7 -11 -10 -23 -7 -25 9 -9 35 8 40 27 7 26 -19 25 -33
-2z"/>
<path d="M1125 620 c-3 -5 -1 -10 4 -10 6 0 11 5 11 10 0 6 -2 10 -4 10 -3 0
-8 -4 -11 -10z"/>
<path d="M790 200 c0 -5 5 -10 10 -10 6 0 10 5 10 10 0 6 -4 10 -10 10 -5 0
-10 -4 -10 -10z"/>
<path d="M1040 144 c0 -8 5 -12 10 -9 6 4 8 11 5 16 -9 14 -15 11 -15 -7z"/>
<path d="M1391 2090 c-12 -36 1 -40 17 -5 14 31 15 35 3 35 -5 0 -14 -13 -20
-30z"/>
<path d="M1645 1970 c-3 -5 -1 -10 4 -10 6 0 11 5 11 10 0 6 -2 10 -4 10 -3 0
-8 -4 -11 -10z"/>
<path d="M1640 305 c0 -8 5 -15 10 -15 6 0 10 7 10 15 0 8 -4 15 -10 15 -5 0
-10 -7 -10 -15z"/>
<path d="M1460 211 c0 -13 26 -32 33 -24 8 7 -11 33 -24 33 -5 0 -9 -4 -9 -9z"/>
<path d="M590 180 c39 -20 43 -20 34 4 -4 10 -17 16 -38 16 l-31 -1 35 -19z"/>
</g>
</svg>
